PathFileType	4	(X/Y/Z)	C:/Users/opensim2020/Desktop/walking_exp_matlab/subject03_walking06_straight_02.trc																																																																																																																																		
DataRate	CameraRate	NumFrames	NumMarkers	Units	OrigDataRate	OrigDataStartFrame	OrigNumFrames																																																																																																																														
100	100	4	44	mm	100	1310	238																																																																																																																														
Frame#	Time	LFHD			RFHD			LBHD			RBHD			C7			T10			CLAV			STRN			RBAK			LSHO			LUPA			LELB			LFRM			LWRA			LWRB			LFIN			RSHO			RUPA			RELB			RFRM			RWRA			RWRB			RFIN			LASI			RASI			LPSI			RPSI			LTHI			LKNE			LTIB			LANK			LHEE			LTOE			RTHI			RKNE			RTIB			RANK			RHEE			RTOE			*39			*40			*41			*42			*43		
		X1	Y1	Z1	X2	Y2	Z2	X3	Y3	Z3	X4	Y4	Z4	X5	Y5	Z5	X6	Y6	Z6	X7	Y7	Z7	X8	Y8	Z8	X9	Y9	Z9	X10	Y10	Z10	X11	Y11	Z11	X12	Y12	Z12	X13	Y13	Z13	X14	Y14	Z14	X15	Y15	Z15	X16	Y16	Z16	X17	Y17	Z17	X18	Y18	Z18	X19	Y19	Z19	X20	Y20	Z20	X21	Y21	Z21	X22	Y22	Z22	X23	Y23	Z23	X24	Y24	Z24	X25	Y25	Z25	X26	Y26	Z26	X27	Y27	Z27	X28	Y28	Z28	X29	Y29	Z29	X30	Y30	Z30	X31	Y31	Z31	X32	Y32	Z32	X33	Y33	Z33	X34	Y34	Z34	X35	Y35	Z35	X36	Y36	Z36	X37	Y37	Z37	X38	Y38	Z38	X39	Y39	Z39	X40	Y40	Z40	X41	Y41	Z41	X42	Y42	Z42	X43	Y43	Z43	X44	Y44	Z44
																																																																																																																																					
30	0.29	-794.50079	1606.61865	928.04999	-804.89038	1613.27234	1060.75012	-925.65594	1570.73633	922.74457	-930.56683	1576.77332	1053.73486	-964.73669	1409.80286	985.9386	-1004.8371	1097.0481	996.20172	-844.20728	1330.62292	988.8902	-802.96753	1165.67334	983.30994	-1019.73431	1235.67981	1084.16431	-887.87408	1369.12708	834.06824	-871.1485	1177.28064	762.09113	-836.25024	1059.83215	752.71057	-758.21136	959.85675	767.08514	-686.28198	873.56665	813.12561	-705.95099	858.57257	763.06403	-645.31818	805.55914	779.72498	-890.7746	1357.76465	1147.27173	-905.79327	1137.078	1223.76379	-900.40027	1024.82947	1240.72986	-901.30432	888.33124	1250.7218	-884.27032	787.24011	1222.14526	-915.84332	789.573	1266.49158	-908.51611	713.29688	1257.53076	-847.966	924.89453	874.70691	-826.22656	940.25531	1110.81824	-1004.3999	950.76697	937.47595	-990.13715	966.34924	1084.44995	-922.85931	622.96484	827.29492	-933.84058	442.87735	845.99084	-1086.57227	313.60138	860.30756	-1232.40454	168.17433	914.07861	-1277.51111	183.46027	953.16199	-1173.94995	33.71873	961.94287	-836.06085	645.93146	1157.0575	-788.39075	472.83224	1114.66431	-797.46283	281.5351	1118.15576	-782.65472	67.17388	1066.77625	-825.06982	35.71999	1014.56958	-639.79547	32.99108	1053.02588	-875.12195	1675.69727	970.75037	NaN	NaN	NaN	NaN	NaN	NaN	NaN	NaN	NaN	NaN	NaN	NaN
31	0.3	-784.84003	1607.55383	929.2569	-795.04547	1613.89136	1061.90332	-916.03387	1571.77966	923.98145	-920.7558	1577.49695	1054.979	-955.1582	1410.45874	987.18378	-994.81586	1097.90393	996.92548	-834.45605	1331.74536	989.30457	-792.9007	1166.74219	983.32202	-1008.92352	1236.31592	1085.51099	-878.70905	1370.677	835.19495	-862.79694	1178.88538	763.21729	-829.42792	1060.85938	754.09766	-752.81049	959.6673	768.01398	-682.12793	871.94006	813.53119	-702.03522	857.49359	763.45154	-642.7464	802.487	780.32117	-880.11102	1358.67664	1147.95166	-893.20801	1138.09106	1224.86365	-886.76611	1025.97485	1241.83362	-885.94501	889.42163	1251.74255	-867.85468	788.47803	1223.09387	-899.28943	790.51782	1267.55127	-891.55634	714.19592	1258.50293	-837.99097	925.34247	875.39929	-815.83423	941.51337	1111.50293	-994.49756	951.25226	938.08942	-979.57703	967.66473	1084.99768	-906.54761	621.77515	827.65796	-911.92065	441.51953	846.04895	-1065.93103	315.41858	859.14435	-1216.82166	176.04074	912.73401	-1261.67395	192.22949	951.92822	-1161.78906	38.7005	957.91412	-829.79645	645.96307	1157.57068	-783.84387	472.47699	1115.37732	-794.82593	281.61371	1118.34082	-782.5094	67.19987	1066.49719	-825.03168	35.72692	1014.46722	-639.67938	32.85572	1052.78931	-865.20758	1676.90723	972.11664	NaN	NaN	NaN	NaN	NaN	NaN	NaN	NaN	NaN	NaN	NaN	NaN
32	0.31	-775.23273	1608.52209	930.33331	-785.28717	1614.55896	1063.04944	-906.53107	1572.74341	925.18805	-911.06384	1578.1958	1056.2616	-945.74603	1411.09937	988.38855	-984.86749	1098.67615	997.80548	-824.68237	1332.43323	989.79669	-783.09326	1167.5686	983.18073	-998.32288	1236.7583	1086.82935	-869.75549	1371.9447	836.07782	-854.57391	1180.01038	764.16718	-822.92975	1061.49536	755.271	-747.42542	959.03052	768.74969	-677.97998	869.69702	813.91302	-698.17719	856.06024	763.72449	-640.43762	798.88531	780.85284	-869.42609	1359.34131	1148.5293	-880.66589	1138.7804	1225.99463	-873.20898	1026.80493	1243.09314	-870.57806	890.31409	1252.81409	-851.18976	789.5708	1223.95129	-882.51257	791.18109	1268.52393	-874.05603	714.84973	1259.30334	-828.12427	926.12732	875.96436	-805.74426	942.23163	1111.9231	-984.89191	951.38287	938.88586	-969.44067	968.62842	1085.85815	-890.40302	620.87854	828.10004	-889.4212	440.55276	846.19727	-1045.07727	317.81125	858.83545	-1200.01953	183.49609	911.72906	-1244.9209	199.70848	951.63788	-1147.23718	43.80487	952.50586	-823.5979	646.0863	1157.96436	-779.02496	471.99625	1115.82654	-792.14166	281.77823	1118.54541	-782.37073	67.21413	1066.32642	-825.04913	35.74929	1014.40387	-639.58783	32.77962	1052.58997	-855.94916	1677.55066	973.58783	NaN	NaN	NaN	NaN	NaN	NaN	NaN	NaN	NaN	NaN	NaN	NaN
33	0.32	-765.82159	1609.54236	931.34625	-775.60272	1615.29626	1064.11279	-897.07507	1573.69714	926.3255	-901.38019	1578.82532	1057.43164	-936.38159	1411.85315	989.47876	-975.06049	1099.38989	998.79962	-815.26007	1333.39526	990.04547	-773.62543	1168.26208	983.03943	-988.0274	1237.1543	1088.14124	-860.91901	1372.93066	836.71875	-846.35382	1180.7876	764.80548	-816.31805	1061.70337	756.19824	-742.08289	958.04626	769.31738	-673.53217	867.42853	814.03644	-694.57513	854.27924	763.85504	-638.43744	794.9101	781.28729	-858.77161	1359.72217	1149.10803	-868.15442	1139.25037	1227.1261	-859.66498	1027.34961	1244.42114	-854.99866	890.86816	1253.83582	-834.39667	790.42554	1224.67529	-865.49127	791.57617	1269.33582	-856.15344	715.46521	1260.04443	-819.12256	926.43915	875.974	-795.81348	942.47925	1112.09216	-975.50763	951.2594	939.87585	-959.52344	969.17639	1086.95959	-874.68646	620.97845	828.8266	-867.04877	440.5354	846.41431	-1024.27051	320.85999	858.92023	-1181.8584	189.87686	910.73004	-1226.99658	205.94054	951.79053	-1130.70056	48.91566	946.97211	-817.4787	646.32184	1158.72839	-774.20856	471.55975	1116.38	-789.45764	281.91965	1118.92151	-782.3728	67.2947	1066.31592	-825.1106	35.75275	1014.46722	-639.57953	32.72399	1052.51758	-846.51556	1678.41602	974.76965	NaN	NaN	NaN	NaN	NaN	NaN	NaN	NaN	NaN	NaN	NaN	NaN
